<svg width="90" height="90" viewBox="0 0 90 90" fill="none" xmlns="http://www.w3.org/2000/svg">
<path d="M87.3633 0H2.63672C1.18055 0 0 1.18055 0 2.63672V87.3633C0 88.8195 1.18055 90 2.63672 90H87.3633C88.8195 90 90 88.8195 90 87.3633V2.63672C90 1.18055 88.8195 0 87.3633 0ZM22.0354 26.4118C20.5792 26.4118 19.3987 25.2313 19.3987 23.7751V13.1843C19.3987 11.7281 20.5792 10.5476 22.0354 10.5476H67.9644C69.4206 10.5476 70.6011 11.7281 70.6011 13.1843V23.7751C70.6011 25.2313 69.4206 26.4118 67.9644 26.4118H52.932V76.8157C52.932 78.2719 51.7514 79.4524 50.2952 79.4524H39.7044C38.2482 79.4524 37.0677 78.2719 37.0677 76.8157V26.4118H22.0354Z" fill="#FFFBF5"/>
<path d="M42.3414 23.7751V74.179H47.6587V23.7751C47.6587 22.319 48.8393 21.1384 50.2955 21.1384H65.3279V15.821H24.6722V21.1384H39.7046C41.1608 21.1384 42.3414 22.319 42.3414 23.7751V23.7751Z" fill="#FFFBF5"/>
</svg>
